<svg width="574" height="574" viewBox="0 0 574 574" fill="none" xmlns="http://www.w3.org/2000/svg">
<path d="M211.392 259.404C209.603 248.347 208.708 242.818 210.177 238.247C211.468 234.226 214 230.716 217.409 228.223C221.284 225.387 226.812 224.493 237.87 222.704L312.894 210.564C323.951 208.775 329.48 207.88 334.051 209.349C338.072 210.641 341.581 213.172 344.075 216.581C346.911 220.456 347.805 225.985 349.594 237.042L390.645 490.742C392.434 501.8 393.328 507.328 391.86 511.9C390.568 515.921 388.037 519.43 384.628 521.924C380.753 524.759 375.224 525.654 364.167 527.443L289.143 539.582C278.086 541.371 272.557 542.266 267.985 540.797C263.964 539.506 260.455 536.974 257.961 533.565C255.126 529.69 254.231 524.162 252.442 513.104L211.392 259.404Z" fill="#09CB9E"/>
<path d="M192.826 144.666C190.635 131.122 189.539 124.351 189.45 118.541C188.904 83.1736 211.65 51.6459 245.385 41.01C250.926 39.263 257.698 38.1673 271.241 35.9759L402.367 14.7589C452.743 6.60775 500.188 40.8377 508.339 91.2136V91.2136C513.774 124.798 490.954 156.428 457.37 161.862L260.758 193.675C252.293 195.045 248.061 195.73 244.43 195.786C222.325 196.126 202.62 181.91 195.973 160.826C194.881 157.363 194.196 153.13 192.826 144.666V144.666Z" fill="#09CB9E"/>
<path d="M5.11134 111.454C3.3222 100.396 2.42763 94.8678 3.89616 90.2963C5.1879 86.2751 7.71952 82.7661 11.1282 80.2721C15.0033 77.4369 20.5319 76.5423 31.5891 74.7532L73.0499 68.0445C100.693 63.5717 114.515 61.3353 125.943 65.0066C135.996 68.236 144.769 74.565 151.004 83.0866C158.092 92.7744 160.328 106.596 164.801 134.239L171.51 175.7C173.299 186.757 174.193 192.286 172.725 196.857C171.433 200.878 168.902 204.387 165.493 206.881C161.618 209.717 156.089 210.611 145.032 212.4L87.7766 221.665C65.6621 225.243 54.6049 227.032 45.4619 224.095C37.4195 221.511 30.4014 216.448 25.4135 209.631C19.743 201.881 17.9539 190.823 14.3756 168.709L5.11134 111.454Z" fill="#09CB9E"/>
<path d="M199 259C199 247.799 199 242.198 201.18 237.92C203.097 234.157 206.157 231.097 209.92 229.18C214.198 227 219.799 227 231 227H307C318.201 227 323.802 227 328.08 229.18C331.843 231.097 334.903 234.157 336.82 237.92C339 242.198 339 247.799 339 259V516C339 527.201 339 532.802 336.82 537.08C334.903 540.843 331.843 543.903 328.08 545.82C323.802 548 318.201 548 307 548H231C219.799 548 214.198 548 209.92 545.82C206.157 543.903 203.097 540.843 201.18 537.08C199 532.802 199 527.201 199 516V259Z" fill="white"/>
<path d="M199 142.769C199 129.05 199 122.19 199.839 116.441C204.95 81.4401 232.44 53.9504 267.441 48.8395C273.19 48 280.05 48 293.769 48H426.6C477.631 48 519 89.3689 519 140.4C519 174.421 491.421 202 457.4 202H258.231C249.656 202 245.369 202 241.776 201.475C219.9 198.281 202.719 181.1 199.525 159.224C199 155.631 199 151.344 199 142.769Z" fill="white"/>
<path d="M19 80C19 68.799 19 63.1984 21.1799 58.9202C23.0973 55.1569 26.1569 52.0973 29.9202 50.1799C34.1984 48 39.799 48 51 48H93C121.003 48 135.004 48 145.7 53.4497C155.108 58.2433 162.757 65.8924 167.55 75.3005C173 85.9961 173 99.9974 173 128V170C173 181.201 173 186.802 170.82 191.08C168.903 194.843 165.843 197.903 162.08 199.82C157.802 202 152.201 202 141 202H83C60.5979 202 49.3968 202 40.8404 197.64C33.3139 193.805 27.1947 187.686 23.3597 180.16C19 171.603 19 160.402 19 138V80Z" fill="white"/>
</svg>
